<svg width="119" height="162" viewBox="0 0 119 162" fill="none" xmlns="http://www.w3.org/2000/svg">
<circle cx="58.4368" cy="17" r="17" fill="black"/>
<path d="M113.437 38.5H6.43695C-0.777172 44.5596 -0.847378 47.9478 6.43695 54C23.5821 50.6877 30.3714 53.8547 36.937 68.5C41.3966 83.1448 40.3147 91.3555 36.937 106L21.937 153.5C28.6285 164.357 32.8365 162.494 40.437 157.5L57.4368 109.5L78.9369 157.5C86.0579 161.043 89.418 160.804 93.4369 153.5L78.9369 106C76.0722 91.3562 76.2694 83.1438 78.9369 68.5C82.6311 56.8914 90.3054 53.7898 113.437 54C119.492 47.0797 118.512 43.8262 113.437 38.5Z" fill="black" stroke="black"/>
</svg>
