<svg width="15" height="15" xmlns="http://www.w3.org/2000/svg">

 <g>
  <title>background</title>
  <rect fill="none" id="canvas_background" height="402" width="582" y="-1" x="-1"/>
 </g>
 <g>
  <title>Layer 1</title>
  <path id="svg_1" fill="#ffffff" d="m4.5,4.5l0.40534,-0.29275c-0.12698,-0.17581 -0.35282,-0.24972 -0.55917,-0.183c-0.20636,0.06673 -0.34617,0.25888 -0.34617,0.47575l0.5,0zm3,9.5c-3.58985,0 -6.5,-2.9101 -6.5,-6.5l-1,0c0,4.1421 3.35786,7.5 7.5,7.5l0,-1zm6.5,-6.5c0,3.5899 -2.9101,6.5 -6.5,6.5l0,1c4.1421,0 7.5,-3.3579 7.5,-7.5l-1,0zm-6.5,-6.5c3.5899,0 6.5,2.91015 6.5,6.5l1,0c0,-4.14214 -3.3579,-7.5 -7.5,-7.5l0,1zm0,-1c-4.14214,0 -7.5,3.35786 -7.5,7.5l1,0c0,-3.58985 2.91015,-6.5 6.5,-6.5l0,-1zm-2.5,12l0,-7.5l-1,0l0,7.5l1,0zm-0.90534,-7.20725l6.50004,8.99995l0.8106,-0.5854l-6.49996,-9.00005l-0.81068,0.5855zm5.90534,-0.79275l0,6l1,0l0,-6l-1,0z"/>
 </g>
</svg>