<?xml version="1.0" ?><svg height="24" id="svg8" version="1.1" viewBox="0 0 24 24" width="24" xmlns="http://www.w3.org/2000/svg" xmlns:cc="http://creativecommons.org/ns#" xmlns:dc="http://purl.org/dc/elements/1.1/" xmlns:rdf="http://www.w3.org/1999/02/22-rdf-syntax-ns#" xmlns:svg="http://www.w3.org/2000/svg"><defs id="defs2"/><g id="g1483" style="display:inline" transform="translate(0,-290.65037)"><path d="m 5.17969,293.65039 c -1.68144,0 -3.12891,1.31249 -3.12891,2.98828 v 12.02344 c 0,1.67579 1.4485,2.98828 3.12891,2.98828 h 13.64062 c 1.68041,0 3.12891,-1.31249 3.12891,-2.98828 v -9.12695 c 0,-1.06833 -0.92053,-1.88477 -1.94922,-1.88477 h -6.6543 c -0.24023,0 -0.43227,-0.13369 -0.50586,-0.28125 -0.342,-0.77582 -0.68815,-1.55988 -1.02929,-2.33206 -0.43367,-0.86959 -1.33514,-1.38672 -2.29688,-1.38672 z m 4.33398,2 c 0.24023,0 0.43229,0.13177 0.50586,0.2793 0.34149,0.77614 0.68761,1.55979 1.0293,2.33201 0.43367,0.8696 1.33515,1.38867 2.29687,1.38867 h 6.60352 v 9.01172 c 0,0.52699 -0.44942,0.98828 -1.12891,0.98828 H 5.17969 c -0.67949,0 -1.12891,-0.46129 -1.12891,-0.98828 v -12.02344 c 0,-0.52699 0.45045,-0.98828 1.12891,-0.98828 1.44462,4e-5 2.88933,2e-5 4.33398,2e-5 z" id="rect1461" style="color:#000000;font-style:normal;font-variant:normal;font-weight:normal;font-stretch:normal;font-size:medium;line-height:normal;font-family:sans-serif;font-variant-ligatures:normal;font-variant-position:normal;font-variant-caps:normal;font-variant-numeric:normal;font-variant-alternates:normal;font-variant-east-asian:normal;font-feature-settings:normal;font-variation-settings:normal;text-indent:0;text-align:start;text-decoration:none;text-decoration-line:none;text-decoration-style:solid;text-decoration-color:#000000;letter-spacing:normal;word-spacing:normal;text-transform:none;writing-mode:lr-tb;direction:ltr;text-orientation:mixed;dominant-baseline:auto;baseline-shift:baseline;text-anchor:start;white-space:normal;shape-padding:0;shape-margin:0;inline-size:0;clip-rule:nonzero;display:inline;overflow:visible;visibility:visible;opacity:1;isolation:auto;mix-blend-mode:normal;color-interpolation:sRGB;color-interpolation-filters:linearRGB;solid-color:#000000;solid-opacity:1;vector-effect:none;fill:#000000;fill-opacity:1;fill-rule:nonzero;stroke:none;stroke-linecap:round;stroke-linejoin:round;stroke-miterlimit:4;stroke-dasharray:none;stroke-dashoffset:0;stroke-opacity:1;color-rendering:auto;image-rendering:auto;shape-rendering:auto;text-rendering:auto;enable-background:accumulate;stop-color:#000000;stop-opacity:1"/></g></svg>