<svg xmlns="http://www.w3.org/2000/svg" viewBox="0 0 200 100"><defs><style>.cls-1,.cls-2,.cls-4,.cls-6{fill:none;}.cls-1,.cls-5,.cls-6{stroke:#fff;}.cls-1,.cls-2,.cls-3,.cls-4,.cls-5,.cls-6{stroke-miterlimit:10;}.cls-2{stroke:#ff8e31;}.cls-2,.cls-6{stroke-width:1.3px;}.cls-3{stroke:#000;}.cls-3,.cls-5{stroke-width:0.6px;}.cls-4{stroke:aqua;}.cls-5{fill:#fff;}</style></defs><title>logog</title><g id="Capa_1" data-name="Capa 1"><rect x="0.5" y="0.5" width="199" height="99"/><path d="M199,1V99H1V1H199m1-1H0V100H200V0Z"/></g><g id="logo"><path class="cls-1" d="M43.863,29.971l17.647.265C74.03,33.751,77.616,42.212,73.333,55.03c-1.343,3.032-5.039,5.053-9.794,6.618l-8.118.529H43.6Z"/><path class="cls-1" d="M52.186,50.677l.177-12.059,8.058.118c3.714.7,6.495,2.4,6.471,7.117.1,3.958-2.359,6.208-6.294,7.471l-5.53-.118"/><rect x="33.426" y="31.598" width="21" height="1.813" transform="translate(-9.669 43.162) rotate(-47.747)"/><polygon class="cls-2" points="78.774 36.677 78.657 62.442 95.01 62.324 95.01 57.618 84.421 57.618 84.421 51.501 93.833 51.618 93.833 46.795 84.48 46.795 84.539 41.559 94.48 41.559 94.539 36.853 78.774 36.677"/><rect class="cls-3" x="74.618" y="61.626" width="13.765" height="1.239" transform="translate(34.648 -28.977) rotate(25.444)"/><polygon class="cls-4" points="98.745 33.589 98.745 59.133 104.039 59.199 103.885 40.295 104.017 40.273 113.877 59.133 119.966 59.155 119.988 33.567 114.627 33.589 115.113 51.787 105.495 33.611 98.745 33.589"/><rect class="cls-3" x="110.954" y="32.954" width="13.765" height="0.987" transform="translate(45.442 -65.362) rotate(37.924)"/><path class="cls-5" d="M116.627,33.059"/><polygon class="cls-6" points="124.48 36.706 124.436 62.515 130.304 62.471 130.26 36.706 124.48 36.706"/><rect x="121.942" y="60.979" width="7.853" height="1.234" transform="translate(62.623 -63.452) rotate(37.095)"/><path class="cls-2" d="M151.3,34.353,150.1,39c-5.141-1.677-8.033-1.347-9.03.676-.465,1.838,1.362,3.229,4.706,4.324,4.889,1.863,7.612,4.73,6.353,9.441-.975,3.613-3.8,5.49-8.147,5.941a13.22,13.22,0,0,1-5.912-.294,9.52,9.52,0,0,1-3.235-1.118l1.118-4.765a13.97,13.97,0,0,0,6.294,1.618,4.185,4.185,0,0,0,4.118-1.735c.735-1.61-.368-2.938-2.618-4.088-5.934-1.752-8.532-4.59-8.647-8.236.095-3.336,1.993-5.469,5.059-6.823a13.52,13.52,0,0,1,5.206-.765A19.992,19.992,0,0,1,151.3,34.353Z"/><rect class="cls-3" x="142.254" y="33.971" width="13.765" height="0.813" transform="translate(52.624 -84.402) rotate(37.924)"/><circle class="cls-4" cx="156.951" cy="58.383" r="3.456"/><rect x="143.436" y="58.782" width="21" height="1.231" transform="translate(6.464 133.4) rotate(-47.747)"/></g></svg>