<?xml version="1.0" ?><!DOCTYPE svg  PUBLIC '-//W3C//DTD SVG 1.1//EN'  'http://www.w3.org/Graphics/SVG/1.1/DTD/svg11.dtd'><svg enable-background="new 0 0 100 100" height="100px" id="Layer_1" version="1.1" viewBox="0 0 100 100" width="100px" xml:space="preserve" xmlns="http://www.w3.org/2000/svg" xmlns:xlink="http://www.w3.org/1999/xlink"><g><path d="M49.74,95.866c25.352,0,45.977-20.625,45.977-45.978S75.092,3.911,49.74,3.911   c-25.353,0-45.979,20.625-45.979,45.978S24.387,95.866,49.74,95.866z M49.74,5.911c24.249,0,43.977,19.728,43.977,43.978   S73.989,93.866,49.74,93.866c-24.25,0-43.979-19.728-43.979-43.978S25.49,5.911,49.74,5.911z" fill="#0087AF"/><path d="M37.578,39.772h-9.115c-0.552,0-1,0.448-1,1v29.446c0,0.552,0.448,1,1,1h9.115c0.552,0,1-0.448,1-1V40.772   C38.578,40.22,38.13,39.772,37.578,39.772z M36.578,69.218h-7.115V41.772h7.115V69.218z" fill="#0087AF"/><path d="M43.406,71.218h8.742c0.552,0,1-0.448,1-1V54.761c0-2.557,0.79-5.605,4.553-5.605   c0.98,0,3.963,0,3.963,5.605v15.458c0,0.552,0.448,1,1,1h9.07c0.552,0,1-0.448,1-1V51.574c0-7.953-4.379-12.701-11.713-12.701   c-3.765,0-6.324,1.602-7.873,3.061v-1.161c0-0.552-0.448-1-1-1h-8.742c-0.552,0-1,0.448-1,1v29.446   C42.406,70.771,42.854,71.218,43.406,71.218z M44.406,41.772h6.742v2.965c0,0.458,0.311,0.857,0.755,0.969   c0.446,0.115,0.908-0.091,1.125-0.494c0.023-0.043,2.41-4.34,7.993-4.34c6.173,0,9.713,3.9,9.713,10.701v17.644h-7.07V54.761   c0-6.617-3.736-7.605-5.963-7.605c-4.104,0-6.553,2.843-6.553,7.605v14.458h-6.742V41.772z" fill="#0087AF"/><path d="M32.977,37.916c3.523,0,6.39-2.886,6.39-6.433c0-3.547-2.866-6.433-6.39-6.433s-6.39,2.886-6.39,6.433   C26.587,35.03,29.453,37.916,32.977,37.916z M32.977,27.05c2.42,0,4.39,1.988,4.39,4.433s-1.969,4.433-4.39,4.433   s-4.39-1.989-4.39-4.433S30.556,27.05,32.977,27.05z" fill="#0087AF"/></g></svg>