<svg xmlns="http://www.w3.org/2000/svg" xml:space="preserve" style="enable-background:new 0 0 100 100" viewBox="0 0 100 100"><path d="M51.7 4c-25.4 0-46 20.6-46 46s20.6 46 46 46 46-20.6 46-46-20.6-46-46-46zm0 90c-24.3 0-44-19.7-44-44s19.7-44 44-44 44 19.7 44 44-19.7 44-44 44z"/><path d="M82.3 31.3v-.2c0-.1-.1-.1-.1-.2 0 0 0-.1-.1-.1-.1-.1-.2-.1-.3-.2h-.1c-.1 0-.2-.1-.3-.1H21.9c-.1 0-.3 0-.4.1h-.1c-.1 0-.2.1-.3.2 0 0 0 .1-.1.1-.1.1-.1.1-.1.2v37.8c0 .3.1.5.3.8.2.2.5.3.7.3.1 0 .3 0 .4-.1h58.6c.1.1.3.1.4.1.3 0 .5-.1.7-.3.3-.3.4-.8.2-1.1v-37c.1-.2.1-.2.1-.3zm-3.5 1.2L51.6 58.8 24.4 32.5h54.4zM50.9 61c.2.2.4.3.7.3.3 0 .5-.1.7-.3l28-27.1v32.6L66.1 52.3c-.4-.4-1-.4-1.4 0s-.4 1 0 1.4l14.2 14.2H24.3l14.2-14.2c.4-.4.4-1 0-1.4s-1-.4-1.4 0L22.9 66.5V33.9l28 27.1z"/></svg>