<svg xmlns="http://www.w3.org/2000/svg" xml:space="preserve" style="enable-background:new 0 0 100.4 100.4" viewBox="0 0 100.4 100.4"><path d="M69.3 8.6H28c-5.3 0-9.7 4.3-9.7 9.6v66.2c0 5.3 4.3 9.6 9.7 9.6h41.3c5.3 0 9.7-4.3 9.7-9.6V18.2c0-5.3-4.3-9.6-9.7-9.6zM76 84.4c0 3.7-3 6.6-6.7 6.6H28c-3.7 0-6.7-3-6.7-6.6V18.2c0-3.7 3-6.6 6.7-6.6h41.3c3.7 0 6.7 3 6.7 6.6v66.2z"/><path d="M60.9 18.1H36.2c-.8 0-1.5.7-1.5 1.5s.7 1.5 1.5 1.5h24.7c.8 0 1.5-.7 1.5-1.5s-.7-1.5-1.5-1.5zM48.6 75.4c-2.8 0-5 2.3-5 5 0 1.3.5 2.6 1.5 3.5.9.9 2.2 1.4 3.5 1.4 2.8 0 5-2.3 5-5s-2.2-4.9-5-4.9zm.1 7c-.5 0-1-.2-1.4-.6-.4-.4-.6-.9-.6-1.4 0-1.1.9-2 2-2s2 .9 2 2-.9 2-2 2z"/></svg>