 <?xml version="1.0" ?><svg
                                height="30"
                                id="svg8"
                                version="1.1"
                                viewBox="0 0 24 24"
                                xmlns="http://www.w3.org/2000/svg"
                                xmlns:cc="http://creativecommons.org/ns#"
                                xmlns:dc="http://purl.org/dc/elements/1.1/"
                                xmlns:rdf="http://www.w3.org/1999/02/22-rdf-syntax-ns#"
                                xmlns:svg="http://www.w3.org/2000/svg"
                            >
                                <defs id="defs2" />
                                <g
                                    id="g1483"
                                    style="display: inline"
                                    transform="translate(0,-290.65037)"
                                >
                                    <path
                                        d="m 5.17969,293.65039 c -1.68144,0 -3.12891,1.31249 -3.12891,2.98828 v 12.02344 c 0,1.67579 1.4485,2.98828 3.12891,2.98828 h 13.64062 c 1.68041,0 3.12891,-1.31249 3.12891,-2.98828 v -9.12695 c 0,-1.06833 -0.92053,-1.88477 -1.94922,-1.88477 h -6.6543 c -0.24023,0 -0.43227,-0.13369 -0.50586,-0.28125 -0.342,-0.77582 -0.68815,-1.55988 -1.02929,-2.33206 -0.43367,-0.86959 -1.33514,-1.38672 -2.29688,-1.38672 z m 4.33398,2 c 0.24023,0 0.43229,0.13177 0.50586,0.2793 0.34149,0.77614 0.68761,1.55979 1.0293,2.33201 0.43367,0.8696 1.33515,1.38867 2.29687,1.38867 h 6.60352 v 9.01172 c 0,0.52699 -0.44942,0.98828 -1.12891,0.98828 H 5.17969 c -0.67949,0 -1.12891,-0.46129 -1.12891,-0.98828 v -12.02344 c 0,-0.52699 0.45045,-0.98828 1.12891,-0.98828 1.44462,4e-5 2.88933,2e-5 4.33398,2e-5 z"
                                        id="rect1461"
                                        fill="#a8b2d1"
                                    />
                                </g>
                            </svg>